# xmcd
#
# Track frame offsets:
#	150
#	25861
#	54945
#	84239
#	116466
#	140928
#	173944
#	188317
#	223572
#	261834
#	297511
#
# Disc length: 4420 seconds
#
# Revision: 1
# Processed by: cddbd v1.5.2PL0 Copyright (c) Steve Scherf et al.
# Submitted via: audiograbber 1.83.01
#
DISCID=9911420b
DTITLE=Grateful Dead - 92-03-23 The Palace, Auburn Hills MI
DYEAR=1900
DGENRE=
TTITLE0=Jack Straw
TTITLE1=Cold Rain and Snow
TTITLE2=Walkin Blues
TTITLE3=Loose Lucy
TTITLE4=When I Paint My Masterpiece
TTITLE5=West LA Fadeaway
TTITLE6=BIODTL
TTITLE7=Tennessee Jed
TTITLE8=The Music Never Stopped
TTITLE9=Victim Or The Crime
TTITLE10=Gloria
EXTD=
EXTT0=
EXTT1=
EXTT2=
EXTT3=
EXTT4=
EXTT5=
EXTT6=
EXTT7=
EXTT8=
EXTT9=
EXTT10=
PLAYORDER=
